inDegrees=no
num_controls=7
num_derivatives=13
num_iterations=90
num_multipliers=7
num_parameters=0
num_slacks=7
num_states=26
objective=0.446646
objective_accelerations=0.062608
objective_balance=0.002665
objective_effort=0.021880
objective_height=0.352935
objective_ligament=0.006558
solver_duration=1345.281710
status=Solve_Succeeded
success=true
DataType=double
version=3
OpenSimVersion=4.5
endheader
time	/jointset/ground_pelvis/pelvis_tilt/value	/jointset/ground_pelvis/pelvis_tx/value	/jointset/ground_pelvis/pelvis_ty/value	/jointset/hip_l/hip_flexion_l/value	/jointset/hip_l/hip_adduction_l/value	/jointset/hip_l/hip_rotation_l/value	/jointset/back/lumbar_extension/value	/jointset/patellofemoral_l/patellar_flexion_l/value	/jointset/knee_l/knee_flexion_l/value	/jointset/knee_l/knee_adduction_l/value	/jointset/knee_l/knee_rotation_l/value	/jointset/ankle_l/ankle_angle_l/value	/jointset/subtalar_l/subtalar_angle_l/value	/jointset/ground_pelvis/pelvis_tilt/speed	/jointset/ground_pelvis/pelvis_tx/speed	/jointset/ground_pelvis/pelvis_ty/speed	/jointset/hip_l/hip_flexion_l/speed	/jointset/hip_l/hip_adduction_l/speed	/jointset/hip_l/hip_rotation_l/speed	/jointset/back/lumbar_extension/speed	/jointset/patellofemoral_l/patellar_flexion_l/speed	/jointset/knee_l/knee_flexion_l/speed	/jointset/knee_l/knee_adduction_l/speed	/jointset/knee_l/knee_rotation_l/speed	/jointset/ankle_l/ankle_angle_l/speed	/jointset/subtalar_l/subtalar_angle_l/speed	/forceset/tau_hip_flexion_l	/forceset/tau_hip_adduction_l	/forceset/tau_hip_rotation_l	/forceset/tau_knee_flexion_l	/forceset/tau_ankle_angle_l	/forceset/tau_subtalar_angle_l	/forceset/tau_lumbar_extension	lambda_cid13_p0	lambda_cid13_p1	lambda_cid13_p2	lambda_cid13_p3	lambda_cid13_p4	lambda_cid13_p5	lambda_cid14_p0	/jointset/ground_pelvis/pelvis_tilt/accel	/jointset/ground_pelvis/pelvis_tx/accel	/jointset/ground_pelvis/pelvis_ty/accel	/jointset/hip_l/hip_flexion_l/accel	/jointset/hip_l/hip_adduction_l/accel	/jointset/hip_l/hip_rotation_l/accel	/jointset/back/lumbar_extension/accel	/jointset/patellofemoral_l/patellar_flexion_l/accel	/jointset/knee_l/knee_flexion_l/accel	/jointset/knee_l/knee_adduction_l/accel	/jointset/knee_l/knee_rotation_l/accel	/jointset/ankle_l/ankle_angle_l/accel	/jointset/subtalar_l/subtalar_angle_l/accel	gamma_cid13_p0	gamma_cid13_p1	gamma_cid13_p2	gamma_cid13_p3	gamma_cid13_p4	gamma_cid13_p5	gamma_cid14_p0
0	-0.04056461962492748	0.06937362076443011	0.8959931426452701	0.1955287580552426	-0.3215630673815808	-0.4921791025865573	-0.1379045077516729	0.07015288079084694	0.07015288079084844	-0.1745289826511959	-0.1262065586126468	-0.06701059314715049	0.004395976848622515	0	0	0	0	0	0	0	0	0	0	0	0	0	0.1014229806465696	-0.08894968687904224	-0.03256445138436274	-0.2397287920795887	0.2182287343197825	-0.02624132984576799	-0.045226092310492	34.07084477890811	1.887044267711524	3.411344879839384	-12.0969255923153	-517.6195979265613	-70.98077729441347	-40.14072611510252	-3.573180662540617	-1.428696298731798	-0.8525356431795416	11.92002224652546	-1.551778698062909	3.153758199445792	-2.760120489996396	11.21305278032712	11.2130527803252	2.55697499660389	-1.253671515550763	3.636587775749044	0.2745303830215749	6.137352162956803e-10	1.73868384511738e-07	9.529616533283854e-08	2.12304845946496e-08	-2.52455784869658e-08	-6.059379113106173e-08	2.135018625432198e-08
0.01	-0.04073344779854172	0.06930353580651659	0.8959519367986997	0.1961046348462643	-0.3216386923518466	-0.49201905853524	-0.1380472276206139	0.07069865588245247	0.07069865588246858	-0.174403993221828	-0.1262613350260214	-0.06683340812505342	0.004409263789963851	-0.03356398410746411	-0.01391877305908025	-0.008212128988563546	0.1145969640684194	-0.01503715284948946	0.03189064994535148	-0.02820196495455932	0.1087021752651058	0.1087021752650949	0.02494123236762297	-0.01087461405638617	0.03535191195770681	0.00270716285503057	0.09629323142015517	-0.08650404487674933	-0.03157158463983641	-0.2332498123051329	0.2099321833590327	-0.0237820189611386	-0.04084160372400276	31.47165623841082	1.226420776133083	3.571087026009268	-11.15369981938761	-518.574644332495	-72.07967247100632	-40.15175188628434	-3.21776764126587	-1.358730784750791	-0.8012005269981598	11.14276578685962	-1.466552543350468	3.188987711514283	-2.798933173204735	10.63086917112489	10.63086917112451	2.45424195338552	-0.992252947909403	3.471736704698366	0.2762365106499856	-2.0604719331698e-08	2.468918289582576e-07	1.936360193643767e-07	6.374271115278643e-08	-2.66858523810203e-07	-1.402752217964861e-07	3.253312177768293e-08
0.02	-0.04123186788451118	0.06909721052296168	0.8958294798621834	0.1978091277379453	-0.321862062643596	-0.4915436541205742	-0.1384617068741005	0.0723178665810161	0.07231786658101792	-0.1740312825493826	-0.1264224368993913	-0.06630525522359414	0.004451107814636674	-0.06591838247157379	-0.0272480651282775	-0.01625021798920616	0.2257232201312371	-0.02954906429730974	0.06307207266808164	-0.05435187690988463	0.2146871213911138	0.2146871213911011	0.04954424859699824	-0.02126509200184448	0.07019357587208881	0.005711416666305516	0.09116348219369241	-0.08405840287450404	-0.03057871789537018	-0.2267708325307526	0.2016356323982244	-0.02132270807659187	-0.03645711513747468	28.945500205078	0.557469164060326	3.727063360597421	-10.40418594960411	-518.4796509128304	-72.96504488234517	-40.18416306464863	-3.331263513869767	-1.31080010075516	-0.8177276455953592	11.22588064540509	-1.446730417729126	3.011912754921528	-2.349709890149596	10.66960695250756	10.66960695250745	2.489331768954248	-1.156844293365185	3.534538167084112	0.3339485742704137	-4.182317387969168e-08	3.199152734047773e-07	2.919758733959149e-07	1.062549377109233e-07	-5.084714691334402e-07	-2.199566524619105e-07	4.371605730104387e-08
0.03	-0.04204897818457243	0.06876020799768236	0.8956271034845226	0.2006093965586944	-0.3222280199636421	-0.4907610133213121	-0.1391282960341297	0.07498369987011369	0.07498369987009051	-0.1734146568771498	-0.1266859871285274	-0.06543175691018424	0.004524103704605435	-0.097360527650192	-0.04008481174967946	-0.02422741310366752	0.3338320967792389	-0.04355986955169452	0.09330631527294649	-0.07877413011690375	0.3179874541110061	0.3179874541109982	0.07366351660050729	-0.03136638970175359	0.1043441551645795	0.008890091378725175	0.08761075432812548	-0.08283209154517385	-0.02989668003025905	-0.2233332889285805	0.1963219180550505	-0.0192011960359241	-0.03352049369126711	27.34717179980798	-0.0868137566820065	3.832939064494715	-9.824128808542451	-518.3456039492708	-73.93019382801138	-40.23661489581778	-3.029222237305234	-1.259946293300225	-0.7881714489893662	10.5286109018349	-1.365968600278339	3.006681636879694	-2.459709289123372	10.08642529632425	10.08642529632478	2.355711396676903	-0.9249626818459404	3.331043879582521	0.3100912964608357	-6.357783815354638e-08	2.707418969950075e-07	3.681135437652482e-07	1.226833201824031e-07	-6.829346312630409e-07	-3.011782694467839e-07	3.756752908228748e-08
0.04	-0.04317621637990982	0.0682968711360958	0.895344863954794	0.2044757980913905	-0.3227316279404287	-0.489680529771278	-0.1400333529768586	0.07866777225928885	0.07866777225928977	-0.172560341108781	-0.1270481883694395	-0.06422160758999876	0.004628939217044922	-0.127943961526697	-0.05251493238972615	-0.03222284840279808	0.43894976252074	-0.05707919564548874	0.1226406228222369	-0.1020454334497395	0.4183349414146659	0.4183349414146512	0.0970822678291223	-0.04099529434334348	0.1375237772271099	0.0120793411604679	0.08405802646253459	-0.08160578021584378	-0.0292146421647612	-0.2198957453264926	0.1910082037118589	-0.01707968399527049	-0.03058387224506715	25.81584536390826	-0.7390439914679755	3.935759295857284	-9.425291459974964	-517.2514182548163	-74.69702795585739	-40.3073912094814	-3.159521253447156	-1.229474904484072	-0.8213756825292005	10.62763846410492	-1.348434585611024	2.831925743806651	-2.119519915312939	10.07903786926105	10.07903786925864	2.349228413975414	-1.062365681701336	3.340346721092107	0.3360635881350344	-8.534355829803739e-08	2.190489985057266e-07	4.437934371518556e-07	1.385738914356013e-07	-8.560132617804017e-07	-3.824316428506151e-07	3.106165109565236e-08
0.05	-0.04460544799394758	0.06771128231168029	0.8949823027433719	0.2093795731760219	-0.3233678991782685	-0.4883122796173159	-0.1411642992143147	0.08334169551172309	0.08334169551172362	-0.1714749241374946	-0.1275055649283427	-0.06268404337436979	0.004766069975524265	-0.157733925958762	-0.06453027669866983	-0.04030912495661748	0.5412909431244892	-0.0700773682157408	0.1508698980441451	-0.1239179380417735	0.5159640154325363	0.5159640154325604	0.1199054120098053	-0.05037491447501054	0.1698383018151519	0.0153717501038353	0.07936597477358705	-0.07638156469514965	-0.02832847235855836	-0.2154480085990152	0.1855844826018585	-0.01749866018329696	-0.02681141441991384	24.13871894323668	-0.3566199458200346	3.981235611583368	-8.636832910024561	-516.3955474238919	-73.00296425712069	-40.39436811610532	-2.863464758596622	-1.1766529816096	-0.8053859043239016	9.960201404750997	-1.260951973086274	2.797439534237668	-2.187234331137422	9.531981962642416	9.531981962649887	2.234595673637307	-0.8599386775311954	3.154405456309889	0.3294843646774018	-1.009548543462071e-07	1.491047538297588e-07	4.856728508653718e-07	1.439025503446763e-07	-9.610655334167567e-07	-4.331432235330412e-07	2.20788167287776e-08
0.06	-0.04632752539640773	0.06700772228667359	0.8945382523139086	0.2152913287759202	-0.3241312408178805	-0.4866659344865561	-0.1425071942176934	0.08897733746323432	0.08897733746323702	-0.1701641280736877	-0.1280535733883182	-0.06082785388712996	0.004936855786885131	-0.1865131192112374	-0.07610917250796465	-0.04852069201102051	0.6405458655778919	-0.08249327600015495	0.1782596181802425	-0.1444351866333637	0.6106786812341013	0.610678681234179	0.1421580863313907	-0.05912167455194641	0.2012488315491806	0.01881035173679533	0.07467392308439087	-0.07115734917444887	-0.02744230255224095	-0.211000271871672	0.1801607614918151	-0.01791763637134101	-0.02303895659493835	22.52231248782529	0.02106705962286302	4.0207345491914	-8.009572283745898	-514.6720506248917	-71.12466527069502	-40.49509124969394	-2.957367017529243	-1.142185204554267	-0.8464337826459267	10.01038683403557	-1.231981628443448	2.664014726644478	-1.848468715224196	9.496156225999947	9.496156226000487	2.235134442155875	-0.9357936707550885	3.159547750289482	0.365302126053577	-1.163070167482159e-07	7.839203141961479e-08	5.261290864873893e-07	1.487864971550513e-07	-1.063253537310754e-06	-4.825688339956187e-07	1.299168946168221e-08
0.07000000000000001	-0.04833322179139102	0.06619049868078643	0.8940111778755809	0.222181827383601	-0.3250159726346669	-0.4847509306445055	-0.1440479706856766	0.09554673716560159	0.09554673716560096	-0.1686336515738365	-0.128687188099615	-0.05866176905085538	0.00514278782431505	-0.2144667680876768	-0.08726481908839659	-0.05693072096345399	0.7370556767964289	-0.09435434174704199	0.2045832375814354	-0.1635241838418743	0.7027154534051118	0.702715453405091	0.1638296047288811	-0.06750151350932453	0.2318075457488448	0.02239736688396958	0.0701023646046898	-0.06717052043351929	-0.02661080134535341	-0.207503752568859	0.1749583003526607	-0.01730842198372235	-0.01943050927589414	20.99502704927512	-0.01889157764228809	4.075985167950478	-7.408869291844645	-513.1976218998019	-70.19764479001999	-40.60681147745306	-2.690443242324338	-1.091615131028601	-0.8439801372306429	9.396546454225946	-1.148440694364662	2.592766310958635	-1.909726755413381	8.984564349249537	8.98456434923443	2.117101211169084	-0.774037535924918	2.979955748693313	0.3585251166748022	-1.299630598377753e-07	-5.531517788552759e-08	5.369400766068039e-07	1.37075515692624e-07	-1.10465161443099e-06	-5.156155751977704e-07	-5.287504814577199e-09
0.08	-0.05061367055906495	0.06526384645984684	0.8933988646105914	0.2300224777411543	-0.3260163694382324	-0.4825774444556251	-0.1457737594320983	0.1030219299170033	0.1030219299170072	-0.1668896717554986	-0.1294015929060213	-0.05619491257380665	0.005385214794741664	-0.2414635937490534	-0.09799489551844488	-0.06556845734339352	0.8305762155534832	-0.1056262733560707	0.2299560875467081	-0.1814376423203448	0.7918372910400422	0.7918372910399198	0.1848587500313159	-0.0752796935745319	0.2614031597040483	0.02610933833616425	0.06553080612497647	-0.06318369169256337	-0.0257793001384843	-0.2040072332659964	0.1697558392135413	-0.016699207596056	-0.01582206195691422	19.52143307394829	-0.06325251746579115	4.126228505543545	-6.94981115109671	-510.9561654063909	-69.10949999565268	-40.72658787349532	-2.766002374516712	-1.057071174477503	-0.8919752681471345	9.412532341739006	-1.114154800871782	2.473860839460432	-1.613360969216175	8.913169318783931	8.913169318783849	2.106659823144767	-0.8154618923209234	2.966927701397389	0.3902933870576796	-1.435096758749187e-07	-1.930865476355084e-07	5.458384702421797e-07	1.242938936964675e-07	-1.142127760791629e-06	-5.476056151573139e-07	-2.415973567207298e-08
